<svg height="512pt" preserveAspectRatio="xMidYMid meet" viewBox="0 0 512 512" width="512pt" xmlns="http://www.w3.org/2000/svg"><g transform="matrix(.1 0 0 -.1 0 512)"><path d="m2175 4301c-16-10-38-28-49-39-25-29-32-101-13-138 9-16 113-126 231-244l216-215 216 215c118 118 222 227 230 242 46 88-20 198-119 198-55 0-70-10-184-123-96-95-106-102-143-102s-47 7-143 102c-127 127-173 147-242 104z"/><path d="m1750 3743c-242-41-460-188-587-397-51-83-504-744-576-841-87-116-324-347-458-448-64-48-120-94-123-103-12-33-5-65 22-93 17-19 393-224 997-545 771-410 978-516 1007-516 28 0 42 7 62 31 22 26 26 40 26 97 0 177 38 423 95 621 27 93 294 779 419 1078 66 155 74 377 21 543-112 354-428 584-793 579-48-1-98-4-112-6zm187-179 30-6-9-56c-4-32-10-72-13-89l-6-33h-75c-165 0-303-82-395-235-32-54-509-751-578-845-76-104-171-220-180-220-10 0-125 98-129 110-2 6 16 34 41 62 24 29 71 89 104 133 64 86 476 686 580 848 87 133 165 207 278 263 119 59 261 86 352 68zm-1419-1577 63-64-72-65-73-66-46 51c-81 90-80 80-8 147 34 33 65 59 68 60 3 0 34-29 68-63z"/><path d="m3090 3736c-131-28-234-76-347-161l-61-46 43-71c104-168 149-328 149-528-1-164-21-258-94-431-28-65-66-159-86-209l-35-92 110-276c61-153 124-326 141-387 55-198 90-431 90-602 0-69 2-77 29-104 45-44 75-39 220 37 208 110 1504 800 1673 891 158 84 198 116 198 159 0 42-12 55-129 142-134 100-371 331-458 447-71 95-524 756-576 841-113 184-284 316-488 374-95 28-286 35-379 16zm260-177c182-29 350-142 446-301 45-74 492-729 572-838 30-41 83-109 118-151l63-77-67-56c-36-31-69-56-73-56-10 0-132 154-225 285-69 96-446 648-560 819-81 123-219 196-371 198-40 1-73 4-73 7s-6 43-14 88c-12 74-11 83 3 86 31 9 117 7 181-4zm1389-1568c72-66 72-60-5-143l-50-55-73 65-72 65 63 64c34 34 65 63 68 63 3-1 34-27 69-59z"/><path d="m756 1218c-3-13-6-43-6-66 0-119 116-205 229-171 37 11 111 69 111 87 0 8-304 172-318 172-5 0-12-10-16-22z"/><path d="m4190 1160c-80-44-149-81-154-83-17-6 24-53 66-77 52-29 127-32 175-7 47 25 85 80 90 131 7 56-4 116-20 115-7 0-77-36-157-79z"/></g></svg>